<svg xmlns="http://www.w3.org/2000/svg" xmlns:xlink="http://www.w3.org/1999/xlink" width="500" zoomAndPan="magnify" viewBox="0 0 375 374.999991" height="500" preserveAspectRatio="xMidYMid meet" version="1.0"><defs><g/><clipPath id="2612d6bc83"><path d="M 32.238281 272.992188 L 125.132812 272.992188 L 125.132812 283.320312 L 32.238281 283.320312 Z M 32.238281 272.992188 " clip-rule="nonzero"/></clipPath><clipPath id="6e456702da"><path d="M 203.820312 125.347656 L 296.710938 125.347656 L 296.710938 135.675781 L 203.820312 135.675781 Z M 203.820312 125.347656 " clip-rule="nonzero"/></clipPath></defs><g clip-path="url(#2612d6bc83)"><path fill="#e4e4e4" d="M 32.238281 272.992188 L 125.128906 272.992188 L 125.128906 283.320312 L 32.238281 283.320312 Z M 32.238281 272.992188 " fill-opacity="1" fill-rule="nonzero"/></g><g clip-path="url(#6e456702da)"><path fill="#e4e4e4" d="M 203.820312 125.347656 L 296.707031 125.347656 L 296.707031 135.675781 L 203.820312 135.675781 Z M 203.820312 125.347656 " fill-opacity="1" fill-rule="nonzero"/></g><g fill="#e4e4e4" fill-opacity="1"><g transform="translate(6.209102, 185.254544)"><g><path d="M 16.671875 0 L 0.546875 -41.984375 L 10.796875 -41.984375 L 16.375 -27.046875 L 21.421875 -13.734375 L 31.96875 -41.984375 L 42.171875 -41.984375 L 26.03125 0 Z M 16.671875 0 "/></g></g></g><g fill="#e4e4e4" fill-opacity="1"><g transform="translate(61.336868, 185.254544)"><g><path d="M 5.03125 0 L 5.03125 -41.984375 L 14.578125 -41.984375 L 14.578125 0 Z M 5.03125 0 "/></g></g></g><g fill="#e4e4e4" fill-opacity="1"><g transform="translate(93.37027, 185.254544)"><g><path d="M 5.03125 0 L 5.03125 -41.984375 L 14.578125 -41.984375 L 14.578125 -25.859375 L 18.171875 -25.859375 C 20.535156 -25.859375 22.265625 -26.234375 23.359375 -26.984375 C 24.460938 -27.742188 25.375 -29.109375 26.09375 -31.078125 L 30.046875 -41.984375 L 40.375 -41.984375 L 34.546875 -27.046875 C 34.023438 -25.691406 33.4375 -24.472656 32.78125 -23.390625 C 32.125 -22.316406 31.375 -21.378906 30.53125 -20.578125 L 41.875 0 L 30.765625 0 L 21.78125 -17.03125 C 21.414062 -16.988281 21.0625 -16.96875 20.71875 -16.96875 C 20.382812 -16.96875 20.015625 -16.96875 19.609375 -16.96875 L 14.578125 -16.96875 L 14.578125 0 Z M 5.03125 0 "/></g></g></g><g fill="#e4e4e4" fill-opacity="1"><g transform="translate(149.397824, 185.254544)"><g><path d="M 0.546875 0 L 17.21875 -41.984375 L 26.578125 -41.984375 L 43.25 0 L 33.046875 0 L 30.234375 -7.265625 L 13.5625 -7.265625 L 10.734375 0 Z M 16.015625 -14.75 L 27.828125 -14.75 L 21.890625 -30.109375 Z M 16.015625 -14.75 "/></g></g></g><g fill="#e4e4e4" fill-opacity="1"><g transform="translate(205.605338, 185.254544)"><g><path d="M 19.671875 0.84375 C 16.148438 0.84375 13.117188 0.265625 10.578125 -0.890625 C 8.046875 -2.054688 6.085938 -3.707031 4.703125 -5.84375 C 3.328125 -7.988281 2.640625 -10.5 2.640625 -13.375 L 12 -13.375 C 12 -11.375 12.6875 -9.8125 14.0625 -8.6875 C 15.445312 -7.570312 17.296875 -7.015625 19.609375 -7.015625 C 21.609375 -7.015625 23.1875 -7.40625 24.34375 -8.1875 C 25.507812 -8.96875 26.09375 -10.054688 26.09375 -11.453125 C 26.09375 -12.929688 25.390625 -14.128906 23.984375 -15.046875 C 22.585938 -15.972656 20.410156 -16.753906 17.453125 -17.390625 C 12.535156 -18.429688 8.894531 -20.007812 6.53125 -22.125 C 4.175781 -24.25 3 -27.007812 3 -30.40625 C 3 -34.25 4.394531 -37.28125 7.1875 -39.5 C 9.988281 -41.71875 13.8125 -42.828125 18.65625 -42.828125 C 21.976562 -42.828125 24.859375 -42.253906 27.296875 -41.109375 C 29.734375 -39.972656 31.617188 -38.375 32.953125 -36.3125 C 34.296875 -34.257812 34.96875 -31.8125 34.96875 -28.96875 L 25.796875 -28.96875 C 25.796875 -30.851562 25.175781 -32.332031 23.9375 -33.40625 C 22.695312 -34.488281 20.976562 -35.03125 18.78125 -35.03125 C 16.78125 -35.03125 15.195312 -34.640625 14.03125 -33.859375 C 12.875 -33.078125 12.296875 -31.988281 12.296875 -30.59375 C 12.296875 -29.3125 12.9375 -28.226562 14.21875 -27.34375 C 15.5 -26.46875 17.738281 -25.648438 20.9375 -24.890625 C 26.175781 -23.648438 29.953125 -21.988281 32.265625 -19.90625 C 34.585938 -17.832031 35.75 -15.132812 35.75 -11.8125 C 35.75 -7.851562 34.316406 -4.753906 31.453125 -2.515625 C 28.597656 -0.273438 24.671875 0.84375 19.671875 0.84375 Z M 19.671875 0.84375 "/></g></g></g><g fill="#e4e4e4" fill-opacity="1"><g transform="translate(79.725819, 256.494243)"><g><path d="M 5.03125 0 L 5.03125 -41.984375 L 21.46875 -41.984375 C 24.875 -41.984375 27.816406 -41.363281 30.296875 -40.125 C 32.773438 -38.882812 34.703125 -37.125 36.078125 -34.84375 C 37.460938 -32.570312 38.15625 -29.894531 38.15625 -26.8125 C 38.15625 -23.769531 37.460938 -21.109375 36.078125 -18.828125 C 34.703125 -16.554688 32.773438 -14.800781 30.296875 -13.5625 C 27.816406 -12.320312 24.875 -11.703125 21.46875 -11.703125 L 14.578125 -11.703125 L 14.578125 0 Z M 14.515625 -19.921875 L 20.6875 -19.921875 C 23.164062 -19.921875 25.078125 -20.507812 26.421875 -21.6875 C 27.765625 -22.863281 28.4375 -24.550781 28.4375 -26.75 C 28.4375 -28.945312 27.765625 -30.644531 26.421875 -31.84375 C 25.078125 -33.050781 23.164062 -33.65625 20.6875 -33.65625 L 14.515625 -33.65625 Z M 14.515625 -19.921875 "/></g></g></g><g fill="#e4e4e4" fill-opacity="1"><g transform="translate(132.034284, 256.494243)"><g><path d="M 0.546875 0 L 17.21875 -41.984375 L 26.578125 -41.984375 L 43.25 0 L 33.046875 0 L 30.234375 -7.265625 L 13.5625 -7.265625 L 10.734375 0 Z M 16.015625 -14.75 L 27.828125 -14.75 L 21.890625 -30.109375 Z M 16.015625 -14.75 "/></g></g></g><g fill="#e4e4e4" fill-opacity="1"><g transform="translate(188.241798, 256.494243)"><g><path d="M 14.09375 0 L 0.59375 -41.984375 L 10.734375 -41.984375 L 14.75 -29.21875 L 19.1875 -15.421875 L 24 -29.21875 L 28.5 -41.984375 L 37.546875 -41.984375 L 42.046875 -29.21875 L 46.90625 -15.234375 L 51.40625 -29.21875 L 55.421875 -41.984375 L 65.5 -41.984375 L 51.953125 0 L 42.59375 0 L 33.046875 -27.171875 L 23.515625 0 Z M 14.09375 0 "/></g></g></g><g fill="#e4e4e4" fill-opacity="1"><g transform="translate(266.763864, 256.494243)"><g><path d="M 0.546875 0 L 17.21875 -41.984375 L 26.578125 -41.984375 L 43.25 0 L 33.046875 0 L 30.234375 -7.265625 L 13.5625 -7.265625 L 10.734375 0 Z M 16.015625 -14.75 L 27.828125 -14.75 L 21.890625 -30.109375 Z M 16.015625 -14.75 "/></g></g></g><g fill="#e4e4e4" fill-opacity="1"><g transform="translate(322.971378, 256.494243)"><g><path d="M 5.03125 0 L 5.03125 -41.984375 L 22.96875 -41.984375 C 26.164062 -41.984375 28.941406 -41.40625 31.296875 -40.25 C 33.660156 -39.09375 35.484375 -37.429688 36.765625 -35.265625 C 38.046875 -33.109375 38.6875 -30.53125 38.6875 -27.53125 C 38.6875 -24.445312 37.984375 -21.796875 36.578125 -19.578125 C 35.179688 -17.359375 33.226562 -15.691406 30.71875 -14.578125 L 39.40625 0 L 28.375 0 L 20.875 -13.078125 L 14.578125 -13.078125 L 14.578125 0 Z M 14.453125 -21.109375 L 21.71875 -21.109375 C 24.070312 -21.109375 25.878906 -21.65625 27.140625 -22.75 C 28.398438 -23.851562 29.03125 -25.425781 29.03125 -27.46875 C 29.03125 -29.507812 28.398438 -31.078125 27.140625 -32.171875 C 25.878906 -33.273438 24.070312 -33.828125 21.71875 -33.828125 L 14.453125 -33.828125 Z M 14.453125 -21.109375 "/></g></g></g></svg>